<svg width="16" height="16" viewBox="0 0 16 16" fill="none" xmlns="http://www.w3.org/2000/svg">
<path d="M15.0718 1.99029C15.3647 1.6974 15.3647 1.22252 15.0718 0.929631C14.7789 0.636738 14.304 0.636738 14.0111 0.929631L8.00074 6.94004L1.99033 0.929631C1.69744 0.636738 1.22256 0.636738 0.929669 0.929631C0.636777 1.22252 0.636777 1.6974 0.929669 1.99029L6.94008 8.0007L0.929669 14.0111C0.636776 14.304 0.636776 14.7789 0.929669 15.0718C1.22256 15.3647 1.69744 15.3647 1.99033 15.0718L8.00074 9.06136L14.0111 15.0718C14.304 15.3647 14.7789 15.3647 15.0718 15.0718C15.3647 14.7789 15.3647 14.304 15.0718 14.0111L9.0614 8.0007L15.0718 1.99029Z" fill="#B2B8CC"/>
</svg>
