<svg width="24" height="24" viewBox="0 0 24 24" fill="none" xmlns="http://www.w3.org/2000/svg">
<path fill-rule="evenodd" clip-rule="evenodd" d="M3.14191 12.123L6.42394 5.07858C6.43469 5.05486 6.45192 5.03481 6.47356 5.02087C6.4952 5.00693 6.52033 4.99969 6.54591 5.00001H17.7114C17.7369 4.99994 17.7618 5.00737 17.7832 5.0214C17.8047 5.03543 17.8217 5.05547 17.8323 5.07912L21.1143 12.1235C21.1268 12.1497 21.1308 12.1793 21.1256 12.208C21.1205 12.2367 21.1065 12.2629 21.0857 12.2828L12.2217 20.9616C12.1965 20.9862 12.163 21 12.1281 21C12.0932 21 12.0597 20.9862 12.0345 20.9616L3.17055 12.2823C3.14976 12.2623 3.13577 12.2361 3.13062 12.2075C3.12546 12.1788 3.12942 12.1492 3.14191 12.123ZM12.1411 12.8713C12.8745 12.8713 13.2033 12.8513 13.267 12.8464L13.2648 12.8458C15.5149 12.744 17.1933 12.343 17.1933 11.864C17.1933 11.3849 15.5144 10.984 13.2648 10.8815V12.4476C13.2017 12.4535 12.8512 12.4833 12.1512 12.4833C11.5679 12.4833 11.1458 12.4579 10.9983 12.447V10.8805C8.74403 10.9834 7.06138 11.3839 7.06138 11.864C7.06138 12.3441 8.74403 12.7451 10.9983 12.8464C11.1436 12.8534 11.5578 12.8713 12.1411 12.8713ZM13.267 10.719V10.7195L13.2664 10.719C13.2666 10.719 13.2668 10.719 13.267 10.719ZM13.267 9.31769V10.719C15.8137 10.8393 17.7273 11.3552 17.7273 11.9734C17.7273 12.5917 15.8119 13.1076 13.2664 13.2273V17.7211H10.9978V13.229C8.44653 13.1087 6.5279 12.5928 6.5279 11.974C6.5279 11.3551 8.44653 10.8387 10.9978 10.719V9.31769H7.85895V7.17998H16.4063V9.31769H13.267Z" fill="#50AF95"/>
</svg>
