<svg width="78" height="82" viewBox="0 0 78 82" fill="none" xmlns="http://www.w3.org/2000/svg">
<g filter="url(#filter0_dddd_767_21869)">
<path d="M16 33.5C16 27.8995 16 25.0992 17.0899 22.9601C18.0487 21.0785 19.5785 19.5487 21.4601 18.5899C23.5992 17.5 26.3995 17.5 32 17.5H42C47.6005 17.5 50.4008 17.5 52.5399 18.5899C54.4215 19.5487 55.9513 21.0785 56.9101 22.9601C58 25.0992 58 27.8995 58 33.5V43.5C58 49.1005 58 51.9008 56.9101 54.0399C55.9513 55.9215 54.4215 57.4513 52.5399 58.4101C50.4008 59.5 47.6005 59.5 42 59.5H32C26.3995 59.5 23.5992 59.5 21.4601 58.4101C19.5785 57.4513 18.0487 55.9215 17.0899 54.0399C16 51.9008 16 49.1005 16 43.5V33.5Z" fill="url(#paint0_linear_767_21869)"/>
<path fill-rule="evenodd" clip-rule="evenodd" d="M38.979 38.6624C41.476 37.8374 43.2766 35.4976 43.2766 32.74C43.2766 29.2937 40.4644 26.5 36.9953 26.5C33.5263 26.5 30.7141 29.2937 30.7141 32.74C30.7141 35.4988 32.5162 37.8394 35.0147 38.6635C29.9828 39.5012 26.0098 43.4701 25.1659 48.5C25.0568 49.1502 25 49.8181 25 50.4992L49 50.5C49 49.8188 48.9432 49.1502 48.8341 48.5C47.9899 43.468 44.014 39.4979 38.979 38.6624ZM41.2766 32.74C41.2766 35.0693 39.3722 36.98 36.9953 36.98C34.6184 36.98 32.7141 35.0693 32.7141 32.74C32.7141 30.4107 34.6184 28.5 36.9953 28.5C39.3722 28.5 41.2766 30.4107 41.2766 32.74ZM27.2 48.5C28.1266 43.9355 32.1621 40.5 37 40.5C41.8379 40.5 45.8734 43.9355 46.8 48.5H27.2Z" fill="url(#paint1_linear_767_21869)"/>
<path d="M21.4601 58.4101L20.5521 60.1921L21.4601 58.4101ZM17.0899 54.0399L15.3079 54.9479L17.0899 54.0399ZM56.9101 54.0399L55.1281 53.1319L56.9101 54.0399ZM52.5399 58.4101L51.6319 56.6281L52.5399 58.4101ZM56.9101 22.9601L58.6921 22.0521L56.9101 22.9601ZM21.4601 18.5899L22.3681 20.3719L21.4601 18.5899ZM32 19.5H42V15.5H32V19.5ZM56 33.5V43.5H60V33.5H56ZM42 57.5H32V61.5H42V57.5ZM18 43.5V33.5H14V43.5H18ZM32 57.5C29.1667 57.5 27.1621 57.4984 25.5949 57.3704C24.051 57.2443 23.1087 57.0054 22.3681 56.6281L20.5521 60.1921C21.9506 60.9046 23.478 61.2108 25.2692 61.3571C27.037 61.5016 29.2327 61.5 32 61.5V57.5ZM14 43.5C14 46.2673 13.9984 48.463 14.1429 50.2308C14.2892 52.022 14.5954 53.5494 15.3079 54.9479L18.8719 53.1319C18.4946 52.3913 18.2557 51.449 18.1296 49.9051C18.0016 48.3379 18 46.3333 18 43.5H14ZM22.3681 56.6281C20.8628 55.8611 19.6389 54.6372 18.8719 53.1319L15.3079 54.9479C16.4584 57.2058 18.2942 59.0416 20.5521 60.1921L22.3681 56.6281ZM56 43.5C56 46.3333 55.9984 48.3379 55.8704 49.9051C55.7443 51.449 55.5054 52.3913 55.1281 53.1319L58.6921 54.9479C59.4046 53.5494 59.7108 52.022 59.8571 50.2308C60.0016 48.463 60 46.2673 60 43.5H56ZM42 61.5C44.7673 61.5 46.963 61.5016 48.7308 61.3571C50.522 61.2108 52.0494 60.9046 53.4479 60.1921L51.6319 56.6281C50.8913 57.0054 49.949 57.2443 48.4051 57.3704C46.8379 57.4984 44.8333 57.5 42 57.5V61.5ZM55.1281 53.1319C54.3611 54.6372 53.1372 55.8611 51.6319 56.6281L53.4479 60.1921C55.7058 59.0416 57.5416 57.2058 58.6921 54.9479L55.1281 53.1319ZM42 19.5C44.8333 19.5 46.8379 19.5016 48.4051 19.6296C49.949 19.7557 50.8913 19.9946 51.6319 20.3719L53.4479 16.8079C52.0494 16.0954 50.522 15.7892 48.7308 15.6429C46.963 15.4984 44.7673 15.5 42 15.5V19.5ZM60 33.5C60 30.7327 60.0016 28.537 59.8571 26.7692C59.7108 24.978 59.4046 23.4506 58.6921 22.0521L55.1281 23.8681C55.5054 24.6087 55.7443 25.551 55.8704 27.0949C55.9984 28.6621 56 30.6667 56 33.5H60ZM51.6319 20.3719C53.1372 21.1389 54.3611 22.3628 55.1281 23.8681L58.6921 22.0521C57.5416 19.7942 55.7058 17.9584 53.4479 16.8079L51.6319 20.3719ZM32 15.5C29.2327 15.5 27.037 15.4984 25.2692 15.6429C23.478 15.7892 21.9506 16.0954 20.5521 16.8079L22.3681 20.3719C23.1087 19.9946 24.051 19.7557 25.5949 19.6296C27.1621 19.5016 29.1667 19.5 32 19.5V15.5ZM18 33.5C18 30.6667 18.0016 28.6621 18.1296 27.0949C18.2557 25.551 18.4946 24.6087 18.8719 23.8681L15.3079 22.0521C14.5954 23.4506 14.2892 24.978 14.1429 26.7692C13.9984 28.537 14 30.7327 14 33.5H18ZM20.5521 16.8079C18.2942 17.9584 16.4584 19.7942 15.3079 22.0521L18.8719 23.8681C19.6389 22.3628 20.8628 21.1389 22.3681 20.3719L20.5521 16.8079Z" fill="url(#paint2_linear_767_21869)"/>
</g>
<defs>
<filter id="filter0_dddd_767_21869" x="0" y="0.5" width="78" height="81" filterUnits="userSpaceOnUse" color-interpolation-filters="sRGB">
<feFlood flood-opacity="0" result="BackgroundImageFix"/>
<feColorMatrix in="SourceAlpha" type="matrix" values="0 0 0 0 0 0 0 0 0 0 0 0 0 0 0 0 0 0 127 0" result="hardAlpha"/>
<feOffset dx="2" dy="4"/>
<feGaussianBlur stdDeviation="9"/>
<feColorMatrix type="matrix" values="0 0 0 0 0.0235294 0 0 0 0 0.027451 0 0 0 0 0.0392157 0 0 0 1 0"/>
<feBlend mode="normal" in2="BackgroundImageFix" result="effect1_dropShadow_767_21869"/>
<feColorMatrix in="SourceAlpha" type="matrix" values="0 0 0 0 0 0 0 0 0 0 0 0 0 0 0 0 0 0 127 0" result="hardAlpha"/>
<feOffset dx="-2" dy="-4"/>
<feGaussianBlur stdDeviation="6.5"/>
<feColorMatrix type="matrix" values="0 0 0 0 0.313726 0 0 0 0 0.356863 0 0 0 0 0.458824 0 0 0 1 0"/>
<feBlend mode="normal" in2="effect1_dropShadow_767_21869" result="effect2_dropShadow_767_21869"/>
<feColorMatrix in="SourceAlpha" type="matrix" values="0 0 0 0 0 0 0 0 0 0 0 0 0 0 0 0 0 0 127 0" result="hardAlpha"/>
<feOffset dx="2" dy="4"/>
<feGaussianBlur stdDeviation="6.5"/>
<feColorMatrix type="matrix" values="0 0 0 0 0.0235294 0 0 0 0 0.027451 0 0 0 0 0.0392157 0 0 0 0.9 0"/>
<feBlend mode="normal" in2="effect2_dropShadow_767_21869" result="effect3_dropShadow_767_21869"/>
<feColorMatrix in="SourceAlpha" type="matrix" values="0 0 0 0 0 0 0 0 0 0 0 0 0 0 0 0 0 0 127 0" result="hardAlpha"/>
<feOffset dx="-2" dy="-4"/>
<feGaussianBlur stdDeviation="6.5"/>
<feColorMatrix type="matrix" values="0 0 0 0 0.313726 0 0 0 0 0.356863 0 0 0 0 0.458824 0 0 0 1 0"/>
<feBlend mode="normal" in2="effect3_dropShadow_767_21869" result="effect4_dropShadow_767_21869"/>
<feBlend mode="normal" in="SourceGraphic" in2="effect4_dropShadow_767_21869" result="shape"/>
</filter>
<linearGradient id="paint0_linear_767_21869" x1="31.225" y1="17.5" x2="46.975" y2="59.5" gradientUnits="userSpaceOnUse">
<stop stop-color="#222837"/>
<stop offset="1" stop-color="#505B75"/>
</linearGradient>
<linearGradient id="paint1_linear_767_21869" x1="25" y1="26.5" x2="37" y2="50.5" gradientUnits="userSpaceOnUse">
<stop stop-color="#E5B700"/>
<stop offset="0.825" stop-color="#FFE353"/>
</linearGradient>
<linearGradient id="paint2_linear_767_21869" x1="16" y1="17.5" x2="37" y2="59.5" gradientUnits="userSpaceOnUse">
<stop stop-color="#FFE353"/>
<stop offset="0.825" stop-color="#FDDA25"/>
</linearGradient>
</defs>
</svg>
