<svg width="33" height="32" viewBox="0 0 33 32" fill="none" xmlns="http://www.w3.org/2000/svg">
<path d="M0.5 16C0.5 10.3995 0.5 7.59921 1.58993 5.46009C2.54867 3.57847 4.07847 2.04867 5.96009 1.08993C8.09921 0 10.8995 0 16.5 0C22.1005 0 24.9008 0 27.0399 1.08993C28.9215 2.04867 30.4513 3.57847 31.4101 5.46009C32.5 7.59921 32.5 10.3995 32.5 16C32.5 21.6005 32.5 24.4008 31.4101 26.5399C30.4513 28.4215 28.9215 29.9513 27.0399 30.9101C24.9008 32 22.1005 32 16.5 32C10.8995 32 8.09921 32 5.96009 30.9101C4.07847 29.9513 2.54867 28.4215 1.58993 26.5399C0.5 24.4008 0.5 21.6005 0.5 16Z" fill="#F2F4F7"/>
<path fill-rule="evenodd" clip-rule="evenodd" d="M11.2197 15.4697C10.9268 15.7626 10.9268 16.2374 11.2197 16.5303L15.7197 21.0303C16.0126 21.3232 16.4874 21.3232 16.7803 21.0303C17.0732 20.7374 17.0732 20.2626 16.7803 19.9697L12.8107 16L16.7803 12.0303C17.0732 11.7374 17.0732 11.2626 16.7803 10.9697C16.4874 10.6768 16.0126 10.6768 15.7197 10.9697L11.2197 15.4697ZM19.7197 10.9697L15.2197 15.4697C14.9268 15.7626 14.9268 16.2374 15.2197 16.5303L19.7197 21.0303C20.0126 21.3232 20.4874 21.3232 20.7803 21.0303C21.0732 20.7374 21.0732 20.2626 20.7803 19.9697L16.8107 16L20.7803 12.0303C21.0732 11.7374 21.0732 11.2626 20.7803 10.9697C20.4874 10.6768 20.0126 10.6768 19.7197 10.9697Z" fill="#A4AAC2"/>
<path d="M5.96009 30.9101L6.86808 29.1281L5.96009 30.9101ZM31.4101 26.5399L33.1921 27.4479L31.4101 26.5399ZM27.0399 30.9101L27.9479 32.6921L27.0399 30.9101ZM31.4101 5.46009L29.6281 6.36808L31.4101 5.46009ZM5.96009 1.08993L6.86808 2.87195L5.96009 1.08993ZM16.5 30C13.6667 30 11.6621 29.9984 10.0949 29.8704C8.55104 29.7443 7.6087 29.5054 6.86808 29.1281L5.05211 32.6921C6.45061 33.4046 7.97795 33.7108 9.76916 33.8571C11.537 34.0016 13.7327 34 16.5 34V30ZM-1.5 16C-1.5 18.7673 -1.50156 20.963 -1.35712 22.7308C-1.21077 24.522 -0.904647 26.0494 -0.192078 27.4479L3.37195 25.6319C2.99458 24.8913 2.75574 23.949 2.6296 22.4051C2.50156 20.8379 2.5 18.8333 2.5 16H-1.5ZM6.86808 29.1281C5.36278 28.3611 4.13893 27.1372 3.37195 25.6319L-0.192078 27.4479C0.958402 29.7058 2.79417 31.5416 5.05211 32.6921L6.86808 29.1281ZM30.5 16C30.5 18.8333 30.4984 20.8379 30.3704 22.4051C30.2443 23.949 30.0054 24.8913 29.6281 25.6319L33.1921 27.4479C33.9046 26.0494 34.2108 24.522 34.3571 22.7308C34.5016 20.963 34.5 18.7673 34.5 16H30.5ZM16.5 34C19.2673 34 21.463 34.0016 23.2308 33.8571C25.022 33.7108 26.5494 33.4046 27.9479 32.6921L26.1319 29.1281C25.3913 29.5054 24.449 29.7443 22.9051 29.8704C21.3379 29.9984 19.3333 30 16.5 30V34ZM29.6281 25.6319C28.8611 27.1372 27.6372 28.3611 26.1319 29.1281L27.9479 32.6921C30.2058 31.5416 32.0416 29.7058 33.1921 27.4479L29.6281 25.6319ZM16.5 2C19.3333 2 21.3379 2.00156 22.9051 2.1296C24.449 2.25574 25.3913 2.49458 26.1319 2.87195L27.9479 -0.692078C26.5494 -1.40465 25.022 -1.71077 23.2308 -1.85712C21.463 -2.00156 19.2673 -2 16.5 -2V2ZM34.5 16C34.5 13.2327 34.5016 11.037 34.3571 9.26916C34.2108 7.47795 33.9046 5.95061 33.1921 4.55211L29.6281 6.36808C30.0054 7.1087 30.2443 8.05104 30.3704 9.59488C30.4984 11.1621 30.5 13.1667 30.5 16H34.5ZM26.1319 2.87195C27.6372 3.63893 28.8611 4.86278 29.6281 6.36808L33.1921 4.55211C32.0416 2.29417 30.2058 0.458402 27.9479 -0.692078L26.1319 2.87195ZM16.5 -2C13.7327 -2 11.537 -2.00156 9.76916 -1.85712C7.97795 -1.71077 6.45061 -1.40465 5.05211 -0.692078L6.86808 2.87195C7.6087 2.49458 8.55104 2.25574 10.0949 2.1296C11.6621 2.00156 13.6667 2 16.5 2V-2ZM2.5 16C2.5 13.1667 2.50156 11.1621 2.6296 9.59488C2.75574 8.05104 2.99458 7.1087 3.37195 6.36808L-0.192078 4.55211C-0.904647 5.95061 -1.21077 7.47795 -1.35712 9.26916C-1.50156 11.037 -1.5 13.2327 -1.5 16H2.5ZM5.05211 -0.692078C2.79417 0.458402 0.958402 2.29417 -0.192078 4.55211L3.37195 6.36808C4.13893 4.86278 5.36278 3.63893 6.86808 2.87195L5.05211 -0.692078Z" fill="#F2F4F7"/>
</svg>
